<svg xmlns="http://www.w3.org/2000/svg" xmlns:xlink="http://www.w3.org/1999/xlink" viewBox="0 0 741.2 752.98">
  <defs>
    <style>
      .cls-1 {
        fill: #ee1f53;
        stroke: #ee1f53;
      }

      .cls-1, .cls-2, .cls-3, .cls-4, .cls-5, .cls-6, .cls-7 {
        stroke-miterlimit: 10;
        stroke-width: 1.43px;
      }

      .cls-2 {
        fill: #91278f;
        stroke: #91278f;
      }

      .cls-3 {
        fill: #feee4a;
        stroke: #feee4a;
      }

      .cls-4 {
        fill: #4478bc;
        stroke: #4478bc;
      }

      .cls-5 {
        fill: #f7941d;
        stroke: #f7941d;
      }

      .cls-6 {
        fill: #10a44a;
        stroke: #10a44a;
      }

      .cls-7 {
        fill: #f598ab;
        stroke: #f598ab;
      }
    </style>
  </defs>
  <title>candy-game3</title>
  <g id="rectred">
    <rect class="cls-1" x="64.35" y="663.92" width="70.45" height="70.45"/>
    <rect class="cls-1" x="487.08" y="646.59" width="70.45" height="70.45"/>
    <rect class="cls-1" x="440.49" y="507.1" width="70.45" height="70.45"/>
    <rect class="cls-1" x="108.67" y="415.49" width="70.45" height="70.45"/>
    <rect class="cls-1" x="376.85" y="367.61" width="70.45" height="70.45"/>
    <rect class="cls-1" x="501.28" y="195.75" width="70.45" height="70.45"/>
    <rect class="cls-1" x="546.17" y="106.39" width="70.45" height="70.45"/>
    <rect class="cls-1" x="282.53" y="79.12" width="70.45" height="70.45"/>
    <rect class="cls-1" x="17.76" y="19.61" width="70.45" height="70.45"/>
  </g>
  <g id="rectpurp">
    <rect class="cls-2" x="88.21" y="8.67" width="70.45" height="70.45"/>
    <rect class="cls-2" x="240.49" y="149.58" width="70.45" height="70.45"/>
    <rect class="cls-2" x="616.62" y="90.06" width="70.45" height="70.45"/>
    <rect class="cls-2" x="430.83" y="229.69" width="70.45" height="70.45"/>
    <rect class="cls-2" x="447.3" y="345.03" width="70.45" height="70.45"/>
    <rect class="cls-2" x="24.58" y="301.43" width="70.45" height="70.45"/>
    <rect class="cls-2" x="370.03" y="530.83" width="70.45" height="70.45"/>
    <rect class="cls-2" x="557.53" y="628.69" width="70.45" height="70.45"/>
    <rect class="cls-2" x="134.8" y="663.92" width="70.45" height="70.45"/>
  </g>
  <g id="rectyell">
    <rect class="cls-3" x="170.03" y="177.99" width="70.45" height="70.45"/>
    <rect class="cls-3" x="564.35" y="0.71" width="70.45" height="70.45"/>
    <rect class="cls-3" x="360.37" y="243.89" width="70.45" height="70.45"/>
    <rect class="cls-3" x="517.76" y="337.08" width="70.45" height="70.45"/>
    <rect class="cls-3" x="95.03" y="283.67" width="70.45" height="70.45"/>
    <rect class="cls-3" x="299.58" y="507.1" width="70.45" height="70.45"/>
    <rect class="cls-3" x="627.99" y="612.78" width="70.45" height="70.45"/>
    <rect class="cls-3" x="205.26" y="673.01" width="70.45" height="70.45"/>
  </g>
  <g id="rectblue">
    <rect class="cls-4" x="99.58" y="177.99" width="70.45" height="70.45"/>
    <rect class="cls-4" x="493.89" y="0.71" width="70.45" height="70.45"/>
    <rect class="cls-4" x="334.8" y="173.44" width="70.45" height="70.45"/>
    <rect class="cls-4" x="658.67" y="301.43" width="70.45" height="70.45"/>
    <rect class="cls-4" x="165.49" y="301.43" width="70.45" height="70.45"/>
    <rect class="cls-4" x="229.12" y="530.83" width="70.45" height="70.45"/>
    <rect class="cls-4" x="651.85" y="471.87" width="70.45" height="70.45"/>
    <rect class="cls-4" x="275.71" y="681.81" width="70.45" height="70.45"/>
  </g>
  <g id="rectorange">
    <rect class="cls-5" x="29.12" y="160.52" width="70.45" height="70.45"/>
    <rect class="cls-5" x="423.44" y="19.61" width="70.45" height="70.45"/>
    <rect class="cls-5" x="405.26" y="125.29" width="70.45" height="70.45"/>
    <rect class="cls-5" x="642.19" y="230.97" width="70.45" height="70.45"/>
    <rect class="cls-5" x="235.94" y="345.03" width="70.45" height="70.45"/>
    <rect class="cls-5" x="158.67" y="516.05" width="70.45" height="70.45"/>
    <rect class="cls-5" x="581.39" y="450.71" width="70.45" height="70.45"/>
    <rect class="cls-5" x="346.17" y="672.3" width="70.45" height="70.45"/>
  </g>
  <g id="rectgreen">
    <rect class="cls-6" x="0.71" y="90.06" width="70.45" height="70.45"/>
    <rect class="cls-6" x="352.99" y="35.94" width="70.45" height="70.45"/>
    <rect class="cls-6" x="475.71" y="106.39" width="70.45" height="70.45"/>
    <rect class="cls-6" x="571.74" y="208.67" width="70.45" height="70.45"/>
    <rect class="cls-6" x="306.39" y="380.26" width="70.45" height="70.45"/>
    <rect class="cls-6" x="88.21" y="485.94" width="70.45" height="70.45"/>
    <rect class="cls-6" x="510.94" y="480.83" width="70.45" height="70.45"/>
    <rect class="cls-6" x="416.62" y="663.92" width="70.45" height="70.45"/>
  </g>
  <g id="rectchar">
    <rect class="cls-7" x="634.8" y="19.61" width="70.45" height="70.45"/>
    <rect class="cls-7" x="588.21" y="318.89" width="70.45" height="70.45"/>
    <rect class="cls-7" x="38.21" y="371.17" width="70.45" height="70.45"/>
    <rect class="cls-7" x="670.03" y="542.33" width="70.45" height="70.45"/>
    <image width="160" height="160" transform="translate(47.99 380.49) scale(0.32 0.34)" xlink:href="../329096-Green-Gumdrop_round-color-png.png"/>
    <image width="7282" height="8000" transform="translate(642.47 28.14) scale(0.01 0.01)" xlink:href="../Deco_Shining_Snowflake_PNG_Clipar.png"/>
    <image width="1000" height="1000" transform="translate(673.51 547.37) scale(0.06 0.06)" xlink:href="../nicubunu_Plum.png"/>
    <image width="3972" height="2400" transform="matrix(0.02, -0.02, 0.02, 0.02, 559.92, 369.42)" xlink:href="../lollipop-clipart-31.png"/>
  </g>
</svg>
